<?xml version="1.0" encoding="UTF-8" standalone="no"?>
<svg
   xmlns:dc="http://purl.org/dc/elements/1.1/"
   xmlns:cc="http://creativecommons.org/ns#"
   xmlns:rdf="http://www.w3.org/1999/02/22-rdf-syntax-ns#"
   xmlns:svg="http://www.w3.org/2000/svg"
   xmlns="http://www.w3.org/2000/svg"
   xmlns:sodipodi="http://sodipodi.sourceforge.net/DTD/sodipodi-0.dtd"
   xmlns:inkscape="http://www.inkscape.org/namespaces/inkscape"
   width="841.889771pt"
   height="595.275574pt"
   viewBox="0 0 841.889771 595.275574"
   version="1.2"
   id="svg856"
   sodipodi:docname="Logo_PPV 2021_2.svg"
   inkscape:version="0.92.2 (5c3e80d, 2017-08-06)"
   inkscape:export-filename="C:\HONZA\PPV2021\Logo 2021\PPV 2021_FINAL.png"
   inkscape:export-xdpi="200"
   inkscape:export-ydpi="200">
  <metadata
     id="metadata862">
    <rdf:RDF>
      <cc:Work
         rdf:about="">
        <dc:format>image/svg+xml</dc:format>
        <dc:type
           rdf:resource="http://purl.org/dc/dcmitype/StillImage" />
        <dc:title></dc:title>
      </cc:Work>
    </rdf:RDF>
  </metadata>
  <defs
     id="defs860">
    <inkscape:path-effect
       effect="spiro"
       id="path-effect1204"
       is_visible="true" />
  </defs>
  <sodipodi:namedview
     pagecolor="#ffffff"
     bordercolor="#666666"
     borderopacity="1"
     objecttolerance="10"
     gridtolerance="10"
     guidetolerance="10"
     inkscape:pageopacity="0"
     inkscape:pageshadow="2"
     inkscape:window-width="2560"
     inkscape:window-height="1377"
     id="namedview858"
     showgrid="false"
     showguides="true"
     inkscape:guide-bbox="true"
     inkscape:zoom="0.77170141"
     inkscape:cx="845.20448"
     inkscape:cy="404.27218"
     inkscape:window-x="-8"
     inkscape:window-y="-8"
     inkscape:window-maximized="1"
     inkscape:current-layer="surface10494" />
  <g
     id="surface10494">
    <path
       style="fill:#ffffff;fill-opacity:1;fill-rule:nonzero;stroke:none"
       d="M 963.18939,-582.54121 H 1783.6855 V -15.845896 H 963.18939 Z m 0,0"
       id="path815"
       inkscape:connector-curvature="0"
       inkscape:export-xdpi="200"
       inkscape:export-ydpi="200" />
    <g
       id="g1142">
      <path
         sodipodi:nodetypes="cc"
         inkscape:connector-curvature="0"
         id="path817-4-2-7-1"
         d="m 346.63478,321.04363 309.15717,0.0138"
         style="fill:none;stroke:#ff333a;stroke-width:1.91905522;stroke-linecap:round;stroke-linejoin:miter;stroke-miterlimit:4;stroke-dasharray:none;stroke-opacity:1" />
      <path
         inkscape:connector-curvature="0"
         id="path833-7-6-7-2"
         d="m 220.91205,209.16242 c 3.57713,-14.66767 12.81082,-28.72208 25.76837,-39.22868 9.79538,-7.93697 21.63981,-13.8466 34.0813,-17.07005 12.44654,-3.21838 25.45975,-3.75561 37.56223,-1.61173 16.66119,2.95484 31.49586,11.04384 41.59982,22.5489 10.10395,11.50505 15.4418,26.35011 15.10787,41.64626 -0.30357,13.86689 -5.13546,27.87567 -12.26945,40.89109 -7.13905,13.01541 -16.53975,25.12359 -26.42107,36.84655 -25.7937,30.58215 -55.21513,58.99 -78.72691,90.85444 -8.31799,11.26686 -15.86685,22.93408 -22.58091,34.89528"
         style="fill:#ff333a;fill-opacity:1;fill-rule:nonzero;stroke:none;stroke-width:1.29636753" />
      <path
         inkscape:connector-curvature="0"
         id="path835-8-0-6-1"
         d="m 233.51542,183.30393 c -1.70507,-7.44534 -6.08157,-14.17099 -12.39087,-19.02641 -6.27387,-4.8301 -14.40459,-7.78492 -23.03622,-8.54009 -11.39921,-0.9934 -23.51184,1.85498 -33.95478,7.32369 -10.43788,5.47377 -19.2365,13.47662 -25.77852,22.51341 -11.38907,15.74722 -15.89209,34.38337 -15.35577,52.08189 0.53631,17.70361 5.83368,34.61654 12.6894,50.68813 10.69591,25.08305 25.24219,48.52901 42.15126,70.37846 16.80284,21.70251 35.96343,41.87943 57.19338,60.21147"
         style="fill:#ff333a;fill-opacity:1;fill-rule:nonzero;stroke:none;stroke-width:1.29636753" />
      <g
         transform="matrix(1.7440125,-0.05816396,0.05816396,1.7440125,-216.67915,-190.3316)"
         id="g881-6-0-6-2">
        <path
           style="fill:#ffffff;fill-opacity:1;fill-rule:nonzero;stroke:none;stroke-width:0.97337455"
           d="m 215.51266,289.60897 c 12.01234,-4.14422 23.5536,-9.87153 34.16031,-16.95361 8.25896,-5.51421 15.96706,-11.86182 22.63425,-19.07709 6.64059,-7.18484 12.22887,-15.2145 16.5141,-23.72746 -2.50732,7.84699 -6.50002,15.40096 -11.72361,22.16718 -7.6853,9.95526 -17.92732,18.09909 -29.0431,24.47334 -10.20782,5.85671 -21.22482,10.29775 -32.54195,13.11764 z m 0,0"
           id="path837-2-2-5-7"
           inkscape:connector-curvature="0" />
        <path
           style="fill:#ffffff;fill-opacity:1;fill-rule:nonzero;stroke:none;stroke-width:0.97337455"
           d="m 292.06184,270.29213 c -7.51815,0.87527 -15.0705,0.39578 -22.12518,-1.40424 -5.75923,-1.47274 -11.15377,-3.80553 -16.35835,-6.38567 -3.83695,-1.90276 -7.58653,-3.94633 -11.23734,-6.1269 2.47693,2.38226 5.18939,4.54 8.10319,6.45036 6.19992,4.0605 13.33818,6.97173 20.98929,8.1895 6.70138,1.06174 13.75986,0.81438 20.62839,-0.72305 z m 0,0"
           id="path839-2-6-5-5"
           inkscape:connector-curvature="0" />
        <path
           style="fill:#ffffff;fill-opacity:1;fill-rule:nonzero;stroke:none;stroke-width:0.97337455"
           d="m 276.88877,278.86978 c 2.30597,-1.57168 4.52837,-3.26133 6.65579,-5.05374 2.46933,-2.08162 4.81329,-4.31166 6.90272,-6.73578 1.77032,-2.05497 3.35448,-4.25077 4.72211,-6.54931 -0.79398,2.64104 -2.09703,5.18693 -3.82175,7.46645 -1.26886,1.67823 -2.75805,3.20806 -4.37262,4.60468 -2.99738,2.59157 -6.42784,4.72266 -10.08625,6.2677 z m 0,0"
           id="path841-9-6-0-0"
           inkscape:connector-curvature="0" />
      </g>
      <g
         transform="matrix(1.2936143,-0.06507157,0.06518392,1.2958476,-180.56805,-19.919173)"
         id="g869-4-7-0-4">
        <path
           style="fill:#ffffff;fill-opacity:1;fill-rule:nonzero;stroke:none"
           d="m 286.99609,294.00781 c 7.44532,-2.97656 14.57422,-6.92578 21.11719,-11.69531 5.02344,-3.66406 9.71485,-7.82422 13.74219,-12.53125 3.94141,-4.60156 7.22656,-9.71875 9.71484,-15.12109 -1.38281,4.92187 -3.67578,9.6875 -6.72656,13.98047 -4.60547,6.48046 -10.85937,11.80078 -17.63281,16.07421 -6.32813,3.99219 -13.16406,7.13672 -20.21485,9.29297 z m 0,0"
           id="path849-6-4-6-0"
           inkscape:connector-curvature="0" />
        <path
           style="fill:#ffffff;fill-opacity:1;fill-rule:nonzero;stroke:none"
           d="m 334.91797,279.17969 c -4.72656,0.84375 -9.51953,0.85156 -14.07422,0.0273 -3.67969,-0.66797 -7.17969,-1.86719 -10.57812,-3.23828 -2.48829,-1.00391 -4.9336,-2.09766 -7.32032,-3.28516 1.65625,1.35938 3.44532,2.56641 5.34375,3.60547 4.10157,2.25391 8.72657,3.71875 13.57032,4.15235 4.29687,0.38672 8.7539,-0.0469 13.05859,-1.26172 z m 0,0"
           id="path851-3-3-7-1"
           inkscape:connector-curvature="0" />
        <path
           style="fill:#ffffff;fill-opacity:1;fill-rule:nonzero;stroke:none"
           d="m 325.57031,285.01172 c 1.40625,-1.04688 2.76172,-2.16406 4.0586,-3.34375 1.49218,-1.36328 2.91015,-2.80859 4.16015,-4.38281 1.05078,-1.31641 1.98828,-2.71875 2.78907,-4.17969 -0.4336,1.65625 -1.17579,3.25781 -2.1875,4.70312 -0.75391,1.08204 -1.65235,2.07422 -2.625,2.98047 -1.83594,1.71485 -3.9375,3.15235 -6.19532,4.22266 z m 0,0"
           id="path853-3-2-4-7"
           inkscape:connector-curvature="0" />
      </g>
      <text
         transform="matrix(1.0347044,0,-0.19919835,0.9664596,0,0)"
         id="text11387-9-7-4"
         y="313.51126"
         x="441.14471"
         style="font-style:normal;font-variant:normal;font-weight:normal;font-stretch:normal;font-size:102.45389557px;line-height:1.25;font-family:'Source Sans Pro';-inkscape-font-specification:'Source Sans Pro';letter-spacing:0px;word-spacing:0px;fill:#34c8c3;fill-opacity:1;stroke:none;stroke-width:2.56134748"
         xml:space="preserve"><tspan
           style="font-style:normal;font-variant:normal;font-weight:normal;font-stretch:normal;font-size:163.92623901px;font-family:'AR DESTINE';-inkscape-font-specification:'AR DESTINE';fill:#37ccc8;fill-opacity:1;stroke-width:2.56134748"
           y="313.51126"
           x="441.14471"
           id="tspan11385-4-1-4"
           sodipodi:role="line">PPV</tspan></text>
      <text
         transform="matrix(1.2548181,0,-0.12928222,0.79692827,0,0)"
         id="text11387-3-0-3-2"
         y="492.323"
         x="349.59213"
         style="font-style:normal;font-variant:normal;font-weight:normal;font-stretch:normal;font-size:93.08037567px;line-height:1.25;font-family:'Source Sans Pro';-inkscape-font-specification:'Source Sans Pro';letter-spacing:0px;word-spacing:0px;fill:#000000;fill-opacity:1;stroke:none;stroke-width:2.3270092"
         xml:space="preserve"><tspan
           style="font-style:normal;font-variant:normal;font-weight:normal;font-stretch:normal;font-size:94.37199402px;font-family:'Microsoft Tai Le';-inkscape-font-specification:'Microsoft Tai Le';fill:#000000;fill-opacity:1;stroke-width:2.3270092"
           y="492.323"
           x="349.59213"
           id="tspan11385-9-1-4-3"
           sodipodi:role="line">2022</tspan></text>
    </g>
  </g>
</svg>
